<svg width="108" height="96" viewBox="0 0 108 96" fill="none" xmlns="http://www.w3.org/2000/svg">
<path d="M58.5326 69.0667C57.213 70.3865 57.213 72.5227 58.5326 73.839C59.8525 75.1586 61.9886 75.1586 63.3049 73.839L86.589 50.5516C87.2912 49.8494 87.5915 48.9146 87.5441 47.9965C87.5915 47.0751 87.291 46.1437 86.589 45.4417L63.3049 22.1576C61.9886 20.838 59.8489 20.838 58.5326 22.1576C57.213 23.4773 57.213 25.6136 58.5326 26.9298L76.2277 44.6248H3.375C1.512 44.625 0 46.137 0 48C0 49.863 1.512 51.375 3.375 51.375H76.2277L58.5326 69.0667ZM94.5 0.75H27C19.5446 0.75 13.5 6.79465 13.5 14.25V27.75H20.25V14.25C20.25 10.524 23.2706 7.5 27 7.5H94.5C98.2294 7.5 101.25 10.524 101.25 14.25V81.75C101.25 85.476 98.2294 88.5 94.5 88.5H27C23.2706 88.5 20.25 85.4794 20.25 81.75V68.25H13.5V81.75C13.5 89.2054 19.5446 95.25 27 95.25H94.5C101.955 95.25 108 89.2054 108 81.75V14.25C108 6.79465 101.955 0.75 94.5 0.75Z" fill="#34B449"/>
</svg>
