<svg width="170" height="170" viewBox="0 0 170 170" fill="none" xmlns="http://www.w3.org/2000/svg">
<g clip-path="url(#clip0)">
<path d="M85 113.333C83.5479 113.333 82.1596 112.738 81.1608 111.69L43.9733 72.7317C40.7504 69.36 43.1446 63.75 47.8125 63.75H67.2917V23.0209C67.2917 18.1404 71.2654 14.1667 76.1458 14.1667H93.8542C98.7346 14.1667 102.708 18.1404 102.708 23.0209V63.75H122.188C126.855 63.75 129.25 69.36 126.027 72.7317L88.8392 111.69C87.8404 112.738 86.4521 113.333 85 113.333Z" fill="#1F2326"/>
<path d="M157.604 155.833H12.3958C5.56041 155.833 -7.62939e-06 150.273 -7.62939e-06 143.438V139.896C-7.62939e-06 133.06 5.56041 127.5 12.3958 127.5H157.604C164.44 127.5 170 133.06 170 139.896V143.438C170 150.273 164.44 155.833 157.604 155.833Z" fill="#1F2326"/>
</g>
<defs>
<clipPath id="clip0">
<rect width="170" height="170" fill="white"/>
</clipPath>
</defs>
</svg>
