<svg width="170" height="152" viewBox="0 0 170 152" fill="none" xmlns="http://www.w3.org/2000/svg">
<path d="M124.844 0.960938C115.619 0.960938 107.161 3.88414 99.7067 9.64953C92.5597 15.1769 87.8013 22.2169 85 27.3362C82.1987 22.2166 77.4403 15.1769 70.2933 9.64953C62.8386 3.88414 54.3811 0.960938 45.1562 0.960938C19.4132 0.960938 0 22.0174 0 49.9402C0 80.1066 24.2194 100.746 60.8842 131.991C67.1105 137.297 74.1678 143.312 81.503 149.726C82.4699 150.573 83.7117 151.039 85 151.039C86.2883 151.039 87.5301 150.573 88.497 149.727C95.8329 143.311 102.89 137.297 109.12 131.988C145.781 100.746 170 80.1066 170 49.9402C170 22.0174 150.587 0.960938 124.844 0.960938Z" fill="#1F2326"/>
</svg>
