<svg width="170" height="170" viewBox="0 0 170 170" fill="none" xmlns="http://www.w3.org/2000/svg">
<g clip-path="url(#clip0)">
<path d="M85 0C63.0172 0 45.2217 17.7956 45.2217 39.7783C45.2217 61.7611 63.0172 79.5566 85 79.5566C106.983 79.5566 124.778 61.7611 124.778 39.7783C124.778 17.7956 106.983 0 85 0Z" fill="#1F2326"/>
<path d="M100.493 84.1626H69.5074C38.3128 84.1626 12.9803 109.495 12.9803 140.69V163.719C12.9803 167.278 15.702 170 19.2611 170H150.739C154.298 170 157.02 167.278 157.02 163.719V140.69C157.02 109.495 131.687 84.1626 100.493 84.1626Z" fill="#1F2326"/>
</g>
<defs>
<clipPath id="clip0">
<rect width="170" height="170" fill="white"/>
</clipPath>
</defs>
</svg>
